<svg xmlns="http://www.w3.org/2000/svg" xmlns:xlink="http://www.w3.org/1999/xlink" width="2000" zoomAndPan="magnify" viewBox="0 0 1500 1499.999933" height="2000" preserveAspectRatio="xMidYMid meet" version="1.0"><defs><g/><clipPath id="5932ae8767"><rect x="0" width="735" y="0" height="836"/></clipPath></defs><g transform="matrix(1, 0, 0, 1, 368, 332)"><g clip-path="url(#5932ae8767)"><g fill="#be123c" fill-opacity="1"><g transform="translate(4.383219, 622.740575)"><g><path d="M 351.71875 -90.21875 C 372.875 -85.207031 391.664062 -75.738281 408.09375 -61.8125 C 424.53125 -47.894531 437.617188 -30.910156 447.359375 -10.859375 C 457.109375 9.191406 461.984375 30.910156 461.984375 54.296875 C 461.984375 81.585938 455.578125 106.375 442.765625 128.65625 C 429.960938 150.9375 412.976562 168.757812 391.8125 182.125 C 370.644531 195.488281 347.253906 202.171875 321.640625 202.171875 C 300.472656 202.171875 280.421875 197.851562 261.484375 189.21875 C 242.546875 180.59375 227.367188 169.035156 215.953125 154.546875 C 204.535156 140.066406 198.828125 124.472656 198.828125 107.765625 C 198.828125 89.941406 205.234375 74.625 218.046875 61.8125 C 230.859375 49.007812 246.175781 42.609375 264 42.609375 C 281.820312 42.609375 297 49.007812 309.53125 61.8125 C 322.0625 74.625 328.328125 89.941406 328.328125 107.765625 C 328.328125 126.148438 322.195312 141.46875 309.9375 153.71875 C 306.039062 157.613281 302.695312 161.789062 299.90625 166.25 C 297.125 170.707031 295.734375 175.160156 295.734375 179.609375 C 295.734375 191.304688 304.367188 197.15625 321.640625 197.15625 C 346.703125 197.15625 369.394531 190.75 389.71875 177.9375 C 410.050781 165.132812 426.34375 147.867188 438.59375 126.140625 C 450.84375 104.421875 456.96875 80.472656 456.96875 54.296875 C 456.96875 34.253906 452.375 16.15625 443.1875 0 C 434 -16.15625 421.742188 -28.960938 406.421875 -38.421875 C 391.109375 -47.890625 373.984375 -52.625 355.046875 -52.625 C 335.554688 -52.625 317.875 -47.472656 302 -37.171875 C 286.132812 -26.867188 271.238281 -14.335938 257.3125 0.421875 C 243.382812 15.179688 229.457031 30.078125 215.53125 45.109375 C 201.613281 60.148438 186.578125 72.820312 170.421875 83.125 C 154.273438 93.425781 135.894531 98.578125 115.28125 98.578125 C 95.789062 98.578125 77.832031 93.5625 61.40625 83.53125 C 44.976562 73.507812 32.03125 59.863281 22.5625 42.59375 C 13.09375 25.332031 8.359375 6.398438 8.359375 -14.203125 C 8.359375 -39.816406 15.597656 -62.507812 30.078125 -82.28125 C 44.554688 -102.0625 62.9375 -115.289062 85.21875 -121.96875 C 72.40625 -137.5625 62.378906 -154.960938 55.140625 -174.171875 C 47.898438 -193.390625 44.28125 -213.582031 44.28125 -234.75 C 44.28125 -268.726562 52.910156 -299.640625 70.171875 -327.484375 C 87.441406 -355.328125 110.414062 -377.460938 139.09375 -393.890625 C 167.78125 -410.328125 199.664062 -418.546875 234.75 -418.546875 C 263.15625 -418.546875 289.890625 -412.976562 314.953125 -401.84375 C 301.023438 -414.644531 287.097656 -431.347656 273.171875 -451.953125 C 259.253906 -472.566406 252.296875 -495.117188 252.296875 -519.609375 C 252.296875 -537.429688 258.703125 -552.75 271.515625 -565.5625 C 284.328125 -578.375 299.640625 -584.78125 317.453125 -584.78125 C 335.273438 -584.78125 350.453125 -578.375 362.984375 -565.5625 C 375.515625 -552.75 381.78125 -537.429688 381.78125 -519.609375 C 381.78125 -505.703125 377.742188 -493.457031 369.671875 -482.875 C 361.597656 -472.289062 351.4375 -464.210938 339.1875 -458.640625 C 320.25 -450.847656 310.78125 -440.269531 310.78125 -426.90625 C 310.78125 -419.664062 313.703125 -412.703125 319.546875 -406.015625 C 325.398438 -399.328125 332.503906 -393.203125 340.859375 -387.640625 C 367.023438 -370.929688 387.628906 -349.347656 402.671875 -322.890625 C 417.710938 -296.429688 425.234375 -267.050781 425.234375 -234.75 C 425.234375 -205.789062 418.6875 -178.640625 405.59375 -153.296875 C 392.507812 -127.953125 374.550781 -106.925781 351.71875 -90.21875 Z M 234.75 -413.53125 C 191.863281 -413.53125 170.421875 -353.9375 170.421875 -234.75 C 170.421875 -130.039062 187.128906 -71.285156 220.546875 -58.484375 C 230.015625 -64.046875 239.34375 -69.054688 248.53125 -73.515625 C 257.726562 -77.972656 266.78125 -81.875 275.6875 -85.21875 C 291.84375 -114.175781 299.921875 -164.019531 299.921875 -234.75 C 299.921875 -353.9375 278.195312 -413.53125 234.75 -413.53125 Z M 60.15625 -71.015625 C 60.15625 -55.972656 65.582031 -43.019531 76.4375 -32.15625 C 87.300781 -21.300781 100.25 -15.875 115.28125 -15.875 C 130.882812 -15.875 146.484375 -19.769531 162.078125 -27.5625 C 177.671875 -35.363281 193.820312 -43.71875 210.53125 -52.625 C 186.019531 -55.96875 163.179688 -63.488281 142.015625 -75.1875 C 120.859375 -86.882812 102.757812 -101.363281 87.71875 -118.625 C 69.34375 -107.488281 60.15625 -91.617188 60.15625 -71.015625 Z M 60.15625 -71.015625 "/></g></g></g><g fill="#be123c" fill-opacity="1"><g transform="translate(385.310045, 622.740575)"><g><path d="M 344.1875 -112.78125 C 345.863281 -91.0625 339.460938 -71.289062 324.984375 -53.46875 C 310.503906 -35.644531 291.007812 -21.582031 266.5 -11.28125 C 241.988281 -0.976562 215.253906 4.171875 186.296875 4.171875 C 157.890625 4.171875 131.851562 -0.5625 108.1875 -10.03125 C 84.519531 -19.5 65.441406 -32.445312 50.953125 -48.875 C 36.472656 -65.300781 29.234375 -83.816406 29.234375 -104.421875 C 29.234375 -122.242188 35.640625 -137.421875 48.453125 -149.953125 C 61.265625 -162.484375 76.300781 -168.75 93.5625 -168.75 C 111.382812 -168.75 126.703125 -162.484375 139.515625 -149.953125 C 152.328125 -137.421875 158.734375 -122.242188 158.734375 -104.421875 C 158.734375 -89.390625 155.53125 -77.832031 149.125 -69.75 C 142.71875 -61.675781 136.171875 -54.992188 129.484375 -49.703125 C 122.804688 -44.410156 119.46875 -38.144531 119.46875 -30.90625 C 119.46875 -24.78125 122.53125 -18.929688 128.65625 -13.359375 C 134.78125 -7.796875 142.019531 -4.457031 150.375 -3.34375 C 155.945312 -2.78125 161.238281 -2.21875 166.25 -1.65625 C 171.257812 -1.101562 177.941406 -0.828125 186.296875 -0.828125 C 201.335938 -0.828125 214.144531 -6.117188 224.71875 -16.703125 C 235.300781 -27.285156 240.59375 -40.097656 240.59375 -55.140625 C 240.59375 -69.054688 235.441406 -82.554688 225.140625 -95.640625 C 214.835938 -108.734375 201.75 -121.820312 185.875 -134.90625 C 170.007812 -148 153.023438 -161.507812 134.921875 -175.4375 C 116.816406 -189.363281 99.828125 -203.703125 83.953125 -218.453125 C 68.085938 -233.210938 55 -249.085938 44.6875 -266.078125 C 34.382812 -283.066406 29.234375 -301.304688 29.234375 -320.796875 C 29.234375 -343.078125 36.753906 -361.457031 51.796875 -375.9375 C 66.835938 -390.414062 85.21875 -401.132812 106.9375 -408.09375 C 128.65625 -415.0625 149.816406 -418.546875 170.421875 -418.546875 C 190.472656 -418.546875 207.320312 -416.59375 220.96875 -412.6875 C 234.613281 -408.789062 246.863281 -405.171875 257.71875 -401.828125 C 268.582031 -398.492188 279.863281 -397.101562 291.5625 -397.65625 C 296.019531 -398.21875 300.054688 -399.332031 303.671875 -401 C 307.296875 -402.675781 310.222656 -404.625 312.453125 -406.84375 L 316.625 -406.84375 L 316.625 -271.515625 C 316.625 -271.515625 316.207031 -271.515625 315.375 -271.515625 C 314.539062 -271.515625 313.566406 -271.515625 312.453125 -271.515625 C 309.109375 -288.222656 303.535156 -306.878906 295.734375 -327.484375 C 287.941406 -348.085938 276.382812 -366.460938 261.0625 -382.609375 C 245.75 -398.765625 224.445312 -408.515625 197.15625 -411.859375 C 182.675781 -414.085938 170.144531 -411.300781 159.5625 -403.5 C 148.976562 -395.707031 143.128906 -382.898438 142.015625 -365.078125 C 140.898438 -347.253906 146.609375 -330.820312 159.140625 -315.78125 C 171.671875 -300.75 187.679688 -285.851562 207.171875 -271.09375 C 226.671875 -256.332031 246.582031 -241.15625 266.90625 -225.5625 C 287.238281 -209.96875 304.644531 -192.976562 319.125 -174.59375 C 333.613281 -156.21875 341.96875 -135.613281 344.1875 -112.78125 Z M 344.1875 -112.78125 "/></g></g></g></g></g></svg>