<svg xmlns="http://www.w3.org/2000/svg" xmlns:xlink="http://www.w3.org/1999/xlink" width="500" zoomAndPan="magnify" viewBox="0 0 375 374.999991" height="500" preserveAspectRatio="xMidYMid meet" version="1.0"><defs><g/><clipPath id="0022addb09"><path d="M 109.394531 95.878906 L 265.394531 95.878906 L 265.394531 278.878906 L 109.394531 278.878906 Z M 109.394531 95.878906 " clip-rule="nonzero"/></clipPath><clipPath id="4385abca06"><path d="M 96.117188 109.390625 L 279.117188 109.390625 L 279.117188 265.390625 L 96.117188 265.390625 Z M 96.117188 109.390625 " clip-rule="nonzero"/></clipPath></defs><path fill="#7a1712" d="M 256.871094 144.117188 L 256.871094 227.453125 L 187.5 269.085938 L 118.128906 227.453125 L 118.128906 144.117188 L 187.503906 105.914062 L 206.269531 116.164062 Z M 188.285156 102.683594 L 188.265625 102.671875 C 187.78125 102.410156 187.203125 102.410156 186.726562 102.675781 L 115.75 141.765625 C 115.238281 142.046875 114.921875 142.585938 114.921875 143.171875 L 114.921875 228.359375 C 114.921875 228.921875 115.21875 229.449219 115.699219 229.738281 L 186.675781 272.332031 C 186.925781 272.484375 187.210938 272.558594 187.5 272.558594 C 187.789062 272.558594 188.078125 272.484375 188.324219 272.332031 L 259.300781 229.738281 C 259.78125 229.449219 260.078125 228.921875 260.078125 228.359375 L 260.078125 143.171875 C 260.078125 142.585938 259.761719 142.050781 259.25 141.765625 L 207.8125 113.351562 L 188.285156 102.683594 " fill-opacity="1" fill-rule="nonzero"/><g clip-path="url(#0022addb09)"><path fill="#7a1712" d="M 264.101562 231.605469 L 187.5 277.578125 L 110.898438 231.605469 L 110.898438 139.628906 L 187.5 97.445312 L 208.445312 108.886719 L 264.101562 139.628906 Z M 265.15625 138.589844 L 209.128906 107.644531 L 187.839844 96.011719 C 187.625 95.890625 187.367188 95.894531 187.15625 96.011719 L 109.84375 138.589844 C 109.621094 138.714844 109.480469 138.953125 109.480469 139.210938 L 109.480469 232.007812 C 109.480469 232.253906 109.609375 232.488281 109.824219 232.617188 L 187.132812 279.015625 C 187.242188 279.082031 187.371094 279.113281 187.5 279.113281 C 187.628906 279.113281 187.757812 279.082031 187.863281 279.015625 L 265.175781 232.617188 C 265.390625 232.488281 265.519531 232.253906 265.519531 232.007812 L 265.519531 139.210938 C 265.519531 138.953125 265.378906 138.714844 265.15625 138.589844 " fill-opacity="1" fill-rule="nonzero"/></g><path fill="#7a1712" d="M 230.882812 256.867188 L 147.546875 256.867188 L 105.914062 187.496094 L 147.546875 118.128906 L 230.878906 118.128906 L 269.085938 187.5 L 258.832031 206.265625 Z M 272.316406 188.28125 L 272.328125 188.261719 C 272.589844 187.777344 272.585938 187.203125 272.320312 186.722656 L 233.234375 115.75 C 232.953125 115.234375 232.414062 114.917969 231.828125 114.917969 L 146.636719 114.917969 C 146.078125 114.917969 145.546875 115.214844 145.261719 115.695312 L 102.667969 186.671875 C 102.515625 186.921875 102.4375 187.207031 102.4375 187.496094 C 102.4375 187.789062 102.515625 188.074219 102.667969 188.324219 L 145.261719 259.296875 C 145.546875 259.777344 146.078125 260.078125 146.636719 260.078125 L 231.828125 260.078125 C 232.410156 260.078125 232.949219 259.757812 233.230469 259.246094 L 261.644531 207.8125 L 272.316406 188.28125 " fill-opacity="1" fill-rule="nonzero"/><g clip-path="url(#4385abca06)"><path fill="#7a1712" d="M 143.390625 264.097656 L 97.421875 187.496094 L 143.390625 110.894531 L 235.367188 110.894531 L 277.554688 187.5 L 266.109375 208.445312 L 235.367188 264.097656 Z M 236.40625 265.152344 L 267.355469 209.125 L 278.988281 187.839844 C 279.105469 187.621094 279.105469 187.367188 278.984375 187.15625 L 236.40625 109.84375 C 236.285156 109.617188 236.042969 109.476562 235.785156 109.476562 L 142.992188 109.476562 C 142.742188 109.476562 142.507812 109.609375 142.382812 109.820312 L 95.984375 187.132812 C 95.917969 187.242188 95.882812 187.367188 95.882812 187.496094 C 95.882812 187.628906 95.917969 187.753906 95.984375 187.863281 L 142.382812 265.175781 C 142.507812 265.386719 142.742188 265.519531 142.992188 265.519531 L 235.785156 265.519531 C 236.042969 265.519531 236.285156 265.378906 236.40625 265.152344 " fill-opacity="1" fill-rule="nonzero"/></g><g fill="#7a1712" fill-opacity="1"><g transform="translate(150.505705, 222.554332)"><g><path d="M 37.625 1.5625 C 31.144531 1.5625 25.410156 0.1875 20.421875 -2.5625 C 15.429688 -5.320312 11.539062 -9.257812 8.75 -14.375 C 5.957031 -19.5 4.5625 -25.5625 4.5625 -32.5625 C 4.5625 -38.914062 5.84375 -44.910156 8.40625 -50.546875 C 10.96875 -56.191406 14.804688 -60.78125 19.921875 -64.3125 C 25.046875 -67.84375 31.207031 -69.609375 38.40625 -69.609375 C 41.90625 -69.609375 45.453125 -69.140625 49.046875 -68.203125 C 52.640625 -67.265625 55.800781 -65.953125 58.53125 -64.265625 L 58.140625 -68.921875 L 63.484375 -68.921875 L 63.484375 -46.671875 L 59.984375 -46.671875 C 59.523438 -52.628906 57.367188 -57.289062 53.515625 -60.65625 C 49.660156 -64.03125 44.847656 -65.71875 39.078125 -65.71875 C 34.472656 -65.71875 30.273438 -64.390625 26.484375 -61.734375 C 22.703125 -59.078125 19.691406 -55.398438 17.453125 -50.703125 C 15.210938 -46.003906 14.09375 -40.703125 14.09375 -34.796875 C 14.09375 -28.710938 15.191406 -23.269531 17.390625 -18.46875 C 19.597656 -13.675781 22.675781 -9.914062 26.625 -7.1875 C 30.582031 -4.46875 35.09375 -3.109375 40.15625 -3.109375 C 42.9375 -3.109375 45.800781 -3.515625 48.75 -4.328125 C 51.695312 -5.140625 54.375 -6.351562 56.78125 -7.96875 L 56.78125 -29.265625 L 49.96875 -28.875 L 49.96875 -33.15625 L 71.9375 -33.15625 L 71.9375 -29.9375 C 68.832031 -29.9375 66.890625 -28.753906 66.109375 -26.390625 C 65.328125 -24.023438 64.9375 -21.351562 64.9375 -18.375 L 64.9375 -3.5 L 62.3125 -3.5 C 59.59375 -3.5 56.09375 -2.65625 51.8125 -0.96875 C 49.875 -0.195312 47.570312 0.414062 44.90625 0.875 C 42.25 1.332031 39.820312 1.5625 37.625 1.5625 Z M 37.625 1.5625 "/></g></g></g></svg>